# xmcd
#
# Track frame offsets: 
#        150
#        19105
#        33327
#        50912
#        69972
#        86000
#        105755
#        123162
#        140602
#        159005
#
# Disc length: 2331 seconds
#
# Revision: 0
# Processed by: cddbd v1.5.2PL0 Copyright (c) Steve Scherf et al.
# Submitted via: ExactAudioCopy v1.1
#
DISCID=7409190a
DTITLE=羅嘉良 - 天地豪情
DYEAR=1998
DGENRE=Blues
TTITLE0=星空倒轉七十年
TTITLE1=其實我明白妳暗示
TTITLE2=等不到
TTITLE3=好夢難圓
TTITLE4=說天說地說空虛
TTITLE5=仍然在痛
TTITLE6=四個婚禮一個葬禮
TTITLE7=真說話
TTITLE8=誰更重要
TTITLE9=彼此的世界早已拉近
EXTD=
EXTT0=
EXTT1=
EXTT2=
EXTT3=
EXTT4=
EXTT5=
EXTT6=
EXTT7=
EXTT8=
EXTT9=
PLAYORDER=
